# xmcd
#
# Track frame offsets: 
#        183
#        13880
#        26815
#        39723
#        53108
#        65013
#        78648
#        91718
#        103023
#        115980
#        129438
#        141498
#        153270
#        165088
#        175405
#        187883
#        198170
#        208220
#
# Disc length: 2932 seconds
#
# Revision: 9
# Processed by: cddbd v1.5.2PL0 Copyright (c) Steve Scherf et al.
# Submitted via: ExactAudioCopy v1.3
#
DISCID=f80b7212
DTITLE=Robert Johnson - Red Hot Blues - The Blues Collection 06
DYEAR=1994
DGENRE=Blues
TTITLE0=Sweet Home Chicago [mono]
TTITLE1=Ramblin' On My Mind [mono]
TTITLE2=Kind Hearted Woman Blues [mono]
TTITLE3=I Believe I'll Dust My Broom [mono]
TTITLE4=When You Got A Good Friend [mono]
TTITLE5=Terraplane Blues [mono]
TTITLE6=32-20 Blues [mono]
TTITLE7=Walkin' Blues [mono]
TTITLE8=Preachin' Blues [mono]
TTITLE9=They're Red Hot [mono]
TTITLE10=Phonograph Blues [mono]
TTITLE11=If I Had Possession Over Judgement Day [mono]
TTITLE12=I'm A Steady Rollin' Man [mono]
TTITLE13=Stop Breakin' Down Blues [mono]
TTITLE14=Travelling Riverside Blues [mono]
TTITLE15=Milkcow's Calf Blues [mono]
TTITLE16=Little Queen Of Spades [mono]
TTITLE17=Me And The Devil Blues [mono]
EXTD=
EXTT0=
EXTT1=
EXTT2=
EXTT3=
EXTT4=
EXTT5=
EXTT6=
EXTT7=
EXTT8=
EXTT9=
EXTT10=
EXTT11=
EXTT12=
EXTT13=
EXTT14=
EXTT15=
EXTT16=
EXTT17=
PLAYORDER=
